# xmcd
#
# Track frame offsets: 
#        187
#        28187
#        45805
#        63815
#        94405
#        99575
#        111790
#        132972
#        158805
#
# Disc length: 2364 seconds
#
# Revision: 6
# Processed by: cddbd v1.5PL3 Copyright (c) Steve Scherf et al.
# Submitted via: ExactAudioCopy v0.95a4
#
DISCID=6c093a09
DTITLE=Black Sabbath - Tyr
DYEAR=1990
DGENRE=Hard Rock
TTITLE0=Anno Mundi
TTITLE1=The Law Maker
TTITLE2=Jerusalem
TTITLE3=The Sabbath Stones
TTITLE4=The Battle Of Tyr
TTITLE5=Odin's Court
TTITLE6=Valhalla
TTITLE7=Feels Good To Me
TTITLE8=Heaven In Black
EXTD=YEAR: 1990
EXTT0=
EXTT1=
EXTT2=
EXTT3=
EXTT4=
EXTT5=
EXTT6=
EXTT7=
EXTT8=
PLAYORDER=
